<svg width="58" height="15" viewBox="0 0 58 15" fill="none" xmlns="http://www.w3.org/2000/svg">
<path d="M10.2656 10.7734V12H1.65625V10.7734H10.2656ZM1.89844 10.7734V14.7969H0.40625L0.398438 10.7734H1.89844ZM11.5781 10.7734L11.5625 14.7891H10.0703V10.7734H11.5781ZM8.78906 0.625V1.85938H3.80469V0.625H8.78906ZM10.0859 0.625V12H8.58594V0.625H10.0859ZM3.28906 0.625H4.79688L4.5625 5.20312C4.53125 5.89062 4.46615 6.52604 4.36719 7.10938C4.26823 7.6875 4.14583 8.21615 4 8.69531C3.85417 9.17448 3.6875 9.60417 3.5 9.98438C3.3125 10.3594 3.11198 10.6849 2.89844 10.9609C2.6849 11.2318 2.46094 11.4557 2.22656 11.6328C1.9974 11.8047 1.76562 11.9271 1.53125 12H0.84375V10.7734H1.32812C1.46354 10.6276 1.61719 10.4167 1.78906 10.1406C1.96615 9.86458 2.14062 9.50781 2.3125 9.07031C2.48958 8.6276 2.64323 8.08854 2.77344 7.45312C2.90885 6.81771 3 6.06771 3.04688 5.20312L3.28906 0.625ZM15.1753 9.71094L19.0737 3.54688H20.5269V12H19.0737V5.83594L15.1753 12H13.7378V3.54688H15.1753V9.71094ZM26.4834 7.96094H24.9287V7.07031H26.3662C26.7673 7.07031 27.085 7.02083 27.3194 6.92188C27.5537 6.81771 27.7204 6.67448 27.8194 6.49219C27.9183 6.3099 27.9678 6.09635 27.9678 5.85156C27.9678 5.63281 27.9105 5.42708 27.7959 5.23438C27.6866 5.03646 27.5095 4.8776 27.2647 4.75781C27.0199 4.63281 26.6918 4.57031 26.2803 4.57031C25.947 4.57031 25.6449 4.63021 25.3741 4.75C25.1032 4.86458 24.8871 5.02344 24.7256 5.22656C24.5694 5.42448 24.4912 5.64844 24.4912 5.89844H23.0459C23.0459 5.38281 23.1918 4.9401 23.4834 4.57031C23.7803 4.19531 24.1735 3.90625 24.6631 3.70312C25.1579 3.5 25.697 3.39844 26.2803 3.39844C26.7699 3.39844 27.2074 3.45312 27.5928 3.5625C27.9834 3.66667 28.3142 3.82292 28.585 4.03125C28.8558 4.23438 29.0616 4.48958 29.2022 4.79688C29.348 5.09896 29.4209 5.45052 29.4209 5.85156C29.4209 6.13802 29.3532 6.40885 29.2178 6.66406C29.0824 6.91927 28.8871 7.14583 28.6319 7.34375C28.3767 7.53646 28.0668 7.6875 27.7022 7.79688C27.3428 7.90625 26.9366 7.96094 26.4834 7.96094ZM24.9287 7.41406H26.4834C26.9886 7.41406 27.434 7.46354 27.8194 7.5625C28.2048 7.65625 28.5277 7.79688 28.7881 7.98438C29.0485 8.17188 29.2439 8.40365 29.3741 8.67969C29.5095 8.95052 29.5772 9.26302 29.5772 9.61719C29.5772 10.013 29.4965 10.3698 29.335 10.6875C29.1787 11 28.9548 11.2656 28.6631 11.4844C28.3715 11.7031 28.0225 11.8698 27.6162 11.9844C27.2152 12.099 26.7699 12.1562 26.2803 12.1562C25.7334 12.1562 25.2022 12.0625 24.6866 11.875C24.1709 11.6875 23.7465 11.3984 23.4131 11.0078C23.0798 10.612 22.9131 10.1094 22.9131 9.5H24.3584C24.3584 9.75521 24.4392 9.9974 24.6006 10.2266C24.7621 10.4557 24.986 10.6406 25.2725 10.7812C25.5642 10.9219 25.9001 10.9922 26.2803 10.9922C26.6866 10.9922 27.0251 10.9297 27.2959 10.8047C27.5668 10.6797 27.7699 10.513 27.9053 10.3047C28.0459 10.0964 28.1162 9.86979 28.1162 9.625C28.1162 9.30729 28.0537 9.05208 27.9287 8.85938C27.8037 8.66667 27.611 8.52604 27.3506 8.4375C27.0954 8.34375 26.7673 8.29688 26.3662 8.29688H24.9287V7.41406ZM36.9166 10.5547V6.20312C36.9166 5.86979 36.8489 5.58073 36.7134 5.33594C36.5832 5.08594 36.3853 4.89323 36.1197 4.75781C35.8541 4.6224 35.5259 4.55469 35.1353 4.55469C34.7707 4.55469 34.4504 4.61719 34.1744 4.74219C33.9035 4.86719 33.69 5.03125 33.5338 5.23438C33.3827 5.4375 33.3072 5.65625 33.3072 5.89062H31.8619C31.8619 5.58854 31.94 5.28906 32.0963 4.99219C32.2525 4.69531 32.4765 4.42708 32.7681 4.1875C33.065 3.94271 33.4192 3.75 33.8306 3.60938C34.2473 3.46354 34.7108 3.39062 35.2213 3.39062C35.8358 3.39062 36.3775 3.49479 36.8463 3.70312C37.3202 3.91146 37.69 4.22656 37.9556 4.64844C38.2265 5.0651 38.3619 5.58854 38.3619 6.21875V10.1562C38.3619 10.4375 38.3853 10.737 38.4322 11.0547C38.4843 11.3724 38.5598 11.6458 38.6588 11.875V12H37.1509C37.078 11.8333 37.0207 11.612 36.9791 11.3359C36.9374 11.0547 36.9166 10.7943 36.9166 10.5547ZM37.1666 6.875L37.1822 7.89062H35.7213C35.3098 7.89062 34.9426 7.92448 34.6197 7.99219C34.2968 8.05469 34.0259 8.15104 33.8072 8.28125C33.5884 8.41146 33.4218 8.57552 33.3072 8.77344C33.1926 8.96615 33.1353 9.19271 33.1353 9.45312C33.1353 9.71875 33.1952 9.96094 33.315 10.1797C33.4348 10.3984 33.6145 10.5729 33.8541 10.7031C34.0989 10.8281 34.3983 10.8906 34.7525 10.8906C35.1952 10.8906 35.5858 10.7969 35.9244 10.6094C36.2629 10.4219 36.5311 10.1927 36.7291 9.92188C36.9322 9.65104 37.0416 9.38802 37.0572 9.13281L37.6744 9.82812C37.6379 10.0469 37.539 10.2891 37.3775 10.5547C37.216 10.8203 36.9999 11.0755 36.7291 11.3203C36.4634 11.5599 36.1457 11.7604 35.7759 11.9219C35.4114 12.0781 34.9999 12.1562 34.5416 12.1562C33.9686 12.1562 33.466 12.0443 33.0338 11.8203C32.6067 11.5964 32.2733 11.2969 32.0338 10.9219C31.7994 10.5417 31.6822 10.1172 31.6822 9.64844C31.6822 9.19531 31.7707 8.79688 31.9478 8.45312C32.1249 8.10417 32.3801 7.8151 32.7134 7.58594C33.0468 7.35156 33.4478 7.17448 33.9166 7.05469C34.3853 6.9349 34.9088 6.875 35.4869 6.875H37.1666ZM42.6778 9.71094L46.5762 3.54688H48.0294V12H46.5762V5.83594L42.6778 12H41.2403V3.54688H42.6778V9.71094ZM45.7872 0.484375H46.9591C46.9591 0.890625 46.8653 1.2526 46.6778 1.57031C46.4903 1.88281 46.2221 2.1276 45.8731 2.30469C45.5242 2.48177 45.1101 2.57031 44.6309 2.57031C43.907 2.57031 43.3341 2.3776 42.9122 1.99219C42.4955 1.60156 42.2872 1.09896 42.2872 0.484375H43.4591C43.4591 0.791667 43.5476 1.0625 43.7247 1.29688C43.9018 1.53125 44.2039 1.64844 44.6309 1.64844C45.0476 1.64844 45.3445 1.53125 45.5216 1.29688C45.6986 1.0625 45.7872 0.791667 45.7872 0.484375ZM56.5641 7.21094V8.38281H52.0953V7.21094H56.5641ZM52.4 3.54688V12H50.9547V3.54688H52.4ZM57.7359 3.54688V12H56.2828V3.54688H57.7359Z" fill="#757575"/>
</svg>
